# xmcd
#
# Track frame offsets: 
#        150
#        13363
#        27811
#        42680
#        60343
#        76791
#        96282
#        112000
#        131024
#        148348
#        165059
#        184385
#        202048
#        216270
#        235175
#        266597
#
# Disc length: 3707 seconds
#
# Revision: 0
# Processed by: cddbd v1.5.2PL0 Copyright (c) Steve Scherf et al.
# Submitted via: ExactAudioCopyFreeDBPlugin 1.0
#
DISCID=e80e7910
DTITLE=Shelby Lynne - I Am Shelby Lynne Deluxe Edition
DYEAR=2014
DGENRE=Alt. Country
TTITLE0=Your Lies
TTITLE1=Leavin'
TTITLE2=Life is Bad
TTITLE3=Thought it Would be Easier
TTITLE4=Gotta Get Back
TTITLE5=Why Can't You Be?
TTITLE6=Lookin' Up
TTITLE7=Dreamsome
TTITLE8=Where I'm From
TTITLE9=Black Light Blue
TTITLE10=Bless The Fool (previously unreleased)
TTITLE11=Wind (previously unreleased)
TTITLE12=She Knows Where She Goes (previously unreleased)
TTITLE13=Miss You Sissy (previously unreleased)
TTITLE14=Sky is Purple (previously unreleased)
TTITLE15=Should Have Been Better (previously unreleased)
EXTD=
EXTT0=
EXTT1=
EXTT2=
EXTT3=
EXTT4=
EXTT5=
EXTT6=
EXTT7=
EXTT8=
EXTT9=
EXTT10=
EXTT11=
EXTT12=
EXTT13=
EXTT14=
EXTT15=
PLAYORDER=
